:version 1.10
:name ASF
:units
  mass 1
  length 1
  angle deg
:documentation
  ASF file generated by Kaydara
:root
  axis xyz
  order  tx ty tz rx ry rz
  position 0 0 0
  orientation 0 0 0
:bonedata
  begin
    id 1
    name RightUpLegDummy
    direction -1 2.30186e-007 8.31532e-007
    length 4.46685
    axis 0 0 0 xyz
  end
  begin
    id 2
    name RightUpLeg
    direction -2.30187e-007 -1 1.24343e-010
    length 16.4045
    axis -3.49089 -0.000906625 0.000286804 xyz
    dof rx ry rz
  end
  begin
    id 3
    name RightLeg
    direction -2.30181e-007 -1 -4.17157e-009
    length 17.5097
    axis 3.68512 0.0193738 -0.131023 xyz
    dof rx ry rz
  end
  begin
    id 4
    name RightFoot
    direction 8.31421e-007 -4.51202e-011 1
    length 6.49508
    axis 4.81691e-005 -0.120479 -0.188788 xyz
    dof rx ry rz
  end
  begin
    id 5
    name RightToes
    direction 0.00124746 -0.014064 0.9999
    length 3.85082
    axis 0.000481921 0.542163 -0.142578 xyz
    dof rx ry rz
  end
  begin
    id 6
    name SpineDummy
    direction 0.0717043 0.9409 -0.331007
    length 10.0032
    axis 0 0 0 xyz
  end
  begin
    id 7
    name Spine
    direction 2.30186e-007 1 4.58806e-011
    length 9.84055
    axis -0.001389 0.000121418 2.40972e-006 xyz
    dof rx ry rz
  end
  begin
    id 8
    name Spine1
    direction 0 0 0
    length 0
    axis -0.001389 0.000121451 1.30017e-006 xyz
    dof rx ry rz
  end
  begin
    id 9
    name HEadDummy
    direction -0.00347485 0.950688 -0.310128
    length 8.00997
    axis -0.001389 0.000121451 1.30017e-006 xyz
  end
  begin
    id 10
    name HEad
    direction -0.0222688 0.980941 0.193023
    length 5.12695
    axis -0.001389 0.000121451 1.30017e-006 xyz
    dof rx ry rz
  end
  begin
    id 11
    name LeftShoulder1Dummy
    direction 0.988871 0.146793 -0.0242004
    length 3.5792
    axis -0.001389 0.000121451 1.30017e-006 xyz
  end
  begin
    id 12
    name LeftShoulder1
    direction 0.993832 0.108932 0.020779
    length 4.16823
    axis -0.001389 0.000121451 1.30017e-006 xyz
    dof rx ry rz
  end
  begin
    id 13
    name LeftArm
    direction 1 3.44807e-006 -8.31404e-007
    length 9.91437
    axis -23.1894 0.134784 0.967509 xyz
    dof rx ry rz
  end
  begin
    id 14
    name LeftForeArm
    direction 1 3.44842e-006 -8.31581e-007
    length 9.08575
    axis -9.91835 -0.06569 -0.177793 xyz
    dof rx ry rz
  end
  begin
    id 15
    name LeftHand
    direction 0.992938 -0.0411636 0.11126
    length 5.32135
    axis -0.00960232 -0.00340091 0.185173 xyz
    dof rx ry rz
  end
  begin
    id 16
    name RightShoulderDummy
    direction -0.988871 0.146793 -0.0241962
    length 3.5792
    axis -0.001389 0.000121451 1.30017e-006 xyz
  end
  begin
    id 17
    name RightShoulder
    direction -0.993832 0.108933 0.0207785
    length 4.16823
    axis 0.215806 0.000203643 -0.0068026 xyz
    dof rx ry rz
  end
  begin
    id 18
    name RightArm
    direction -1 3.90912e-006 8.31284e-007
    length 9.91437
    axis -23.2009 -0.134239 -0.964101 xyz
    dof rx ry rz
  end
  begin
    id 19
    name RightForeArm
    direction -1 3.90882e-006 8.31502e-007
    length 9.08575
    axis -9.92322 0.0658061 0.178867 xyz
    dof rx ry rz
  end
  begin
    id 20
    name RightHand
    direction -0.992843 -0.0414603 0.112003
    length 5.28593
    axis -0.00960638 0.00330671 -0.185228 xyz
    dof rx ry rz
  end
  begin
    id 21
    name LeftUpLegDummy
    direction 1 -2.30186e-007 -8.31532e-007
    length 4.46685
    axis 0 0 0 xyz
  end
  begin
    id 22
    name LeftUpLeg
    direction -2.30187e-007 -1 6.00931e-010
    length 16.4045
    axis -3.48766 0.00143442 -0.000524262 xyz
    dof rx ry rz
  end
  begin
    id 23
    name LeftLeg
    direction -2.30187e-007 -1 1.6669e-009
    length 17.5097
    axis 3.68178 -0.00654042 -0.000285133 xyz
    dof rx ry rz
  end
  begin
    id 24
    name LeftFoot
    direction 8.31532e-007 -4.54478e-011 1
    length 6.49508
    axis 1.87233e-006 4.66016e-005 -8.6538e-006 xyz
    dof rx ry rz
  end
  begin
    id 25
    name LeftToes
    direction 0.00818058 -0.00485161 0.999955
    length 3.85048
    axis 1.06247e-005 4.65869e-005 -8.65513e-006 xyz
    dof rx ry rz
  end
:hierarchy
  begin
    root RightUpLegDummy SpineDummy LeftUpLegDummy
    RightUpLegDummy RightUpLeg
    RightUpLeg RightLeg
    RightLeg RightFoot
    RightFoot RightToes
    SpineDummy Spine
    Spine Spine1
    Spine1 HEadDummy LeftShoulder1Dummy RightShoulderDummy
    HEadDummy HEad
    LeftShoulder1Dummy LeftShoulder1
    LeftShoulder1 LeftArm
    LeftArm LeftForeArm
    LeftForeArm LeftHand
    RightShoulderDummy RightShoulder
    RightShoulder RightArm
    RightArm RightForeArm
    RightForeArm RightHand
    LeftUpLegDummy LeftUpLeg
    LeftUpLeg LeftLeg
    LeftLeg LeftFoot
    LeftFoot LeftToes
  end

:SAMPLES-PER-SECOND 30
:FULLY-SPECIFIED
:DEGREES
32
root  -64.4 32.8731 26.0661 0.804944 56.0473 1.90019
RightUpLeg  10.1836 -18.3337 -16.8041
RightLeg  10.7156 4.09939 0.50677
RightFoot  -1.40823 -0.0182027 0.00228246
RightToes  -42.0635 -0.235548 -0.316343
Spine  4.04422 -2.43233 0.826639
Spine1  7.79622 -4.77043 1.40093
HEad  27.016 42.0325 -3.94475
LeftShoulder1  0 -2.42657e-020 -4.95415e-022
LeftArm  -48.6172 10.3424 -74.7409
LeftForeArm  63.5302 -13.0993 -2.29613
LeftHand  0.646163 -10.6354 -7.30838
RightShoulder  0 2.42657e-020 1.07489e-018
RightArm  -72.0838 -23.224 88.3739
RightForeArm  -26.5493 64.0977 21.1702
RightHand  2.08296 12.281 19.5622
LeftUpLeg  -16.4075 13.6136 8.7573
LeftLeg  25.8792 -11.6571 -4.71622
LeftFoot  6.23142 0.0747053 -1.42049
LeftToes  -29.8534 2.01279e-006 2.21547e-008
33
root  -64.4039 32.8755 26.0728 0.875437 55.9121 1.9265
RightUpLeg  10.0836 -18.3047 -16.7969
RightLeg  10.7211 4.18031 0.51714
RightFoot  -1.39289 -0.0186436 0.00238941
RightToes  -42.1974 -0.235844 -0.315768
Spine  4.04969 -2.45944 0.851339
Spine1  7.80114 -4.83077 1.45343
HEad  26.941 42.1993 -4.05023
LeftShoulder1  0 -2.42657e-020 -4.95415e-022
LeftArm  -48.2873 10.1201 -74.6177
LeftForeArm  63.3101 -13.2316 -2.32117
LeftHand  0.640175 -10.7364 -7.22694
RightShoulder  0 2.42657e-020 1.07489e-018
RightArm  -71.5351 -23.5443 88.0985
RightForeArm  -26.799 64.3453 21.415
RightHand  2.04734 12.3938 19.0699
LeftUpLeg  -16.3798 13.6935 8.75935
LeftLeg  25.809 -11.6106 -4.68138
LeftFoot  6.24349 0.0749313 -1.41829
LeftToes  -29.9258 2.01279e-006 2.21547e-008
34
root  -64.4015 32.8768 26.0782 0.972907 55.7514 1.97389
RightUpLeg  9.97675 -18.1821 -16.7768
RightLeg  10.7059 4.18425 0.516502
RightFoot  -1.44275 -0.0186601 -0.00158242
RightToes  -42.0941 -0.236191 -0.31546
Spine  4.05668 -2.47267 0.863931
Spine1  7.80924 -4.86404 1.48636
HEad  26.7687 42.2763 -4.34861
LeftShoulder1  0 -2.42657e-020 -4.95415e-022
LeftArm  -47.9216 9.82672 -74.4944
LeftForeArm  63.0865 -13.3168 -2.3375
LeftHand  0.64195 -10.7083 -7.21613
RightShoulder  0 2.42657e-020 1.07489e-018
RightArm  -71.5699 -23.4822 87.982
RightForeArm  -26.829 64.268 21.3373
RightHand  2.06283 12.4453 19.1317
LeftUpLeg  -16.3324 13.7593 8.74324
LeftLeg  25.7096 -11.5252 -4.62461
LeftFoot  6.23784 0.0745626 -1.40701
LeftToes  -30.0159 2.01279e-006 2.21547e-008
35
root  -64.3978 32.8735 26.083 1.08334 55.6434 2.03251
RightUpLeg  9.8327 -18.134 -16.7884
RightLeg  10.8035 4.23746 0.530363
RightFoot  -1.50253 -0.018368 -0.00765034
RightToes  -42.256 -0.23658 -0.315452
Spine  4.05795 -2.5047 0.854948
Spine1  7.80689 -4.93174 1.4713
HEad  26.7703 42.4175 -4.42464
LeftShoulder1  0 -2.42657e-020 -4.95415e-022
LeftArm  -47.5773 9.5439 -74.3263
LeftForeArm  62.8597 -13.4013 -2.35371
LeftHand  0.652542 -10.7524 -7.30014
RightShoulder  0 2.42657e-020 1.07489e-018
RightArm  -71.6298 -23.4089 87.923
RightForeArm  -26.8661 64.1181 21.188
RightHand  2.0631 12.3932 19.2121
LeftUpLeg  -16.3422 13.7824 8.71764
LeftLeg  25.6877 -11.462 -4.59468
LeftFoot  6.20731 0.0740774 -1.39408
LeftToes  -30.0549 2.01279e-006 2.21547e-008
36
root  -64.391 32.8664 26.0891 1.10026 55.6478 2.03027
RightUpLeg  9.8044 -18.2433 -16.8279
RightLeg  10.8871 4.34013 0.54958
RightFoot  -1.59387 -0.0178154 -0.0148793
RightToes  -42.1561 -0.237001 -0.315775
Spine  4.08835 -2.54793 0.869366
Spine1  7.85523 -5.02858 1.51901
HEad  26.9783 42.3999 -4.40542
LeftShoulder1  0 -2.42657e-020 -4.95415e-022
LeftArm  -47.355 9.22256 -74.2653
LeftForeArm  62.7898 -13.5288 -2.37755
LeftHand  0.659582 -10.8204 -7.33055
RightShoulder  0 2.42657e-020 1.07489e-018
RightArm  -71.7283 -23.2746 87.8118
RightForeArm  -26.9118 63.9375 21.0106
RightHand  2.08709 12.5012 19.2642
LeftUpLeg  -16.392 13.8753 8.72175
LeftLeg  25.7839 -11.543 -4.64882
LeftFoot  6.13072 0.0740954 -1.38914
LeftToes  -29.9489 2.01279e-006 2.21547e-008
37
root  -64.3825 32.8606 26.1005 1.16335 55.6059 2.03053
RightUpLeg  9.77053 -18.3471 -16.8492
RightLeg  10.8722 4.48031 0.566083
RightFoot  -1.63012 -0.0171436 -0.0208911
RightToes  -42.2315 -0.237445 -0.316459
Spine  4.10118 -2.59911 0.872635
Spine1  7.87375 -5.13873 1.53711
HEad  27.0206 42.4361 -4.43827
LeftShoulder1  0 -2.42657e-020 -4.95415e-022
LeftArm  -47.0104 8.93311 -74.1199
LeftForeArm  62.4794 -13.6092 -2.39323
LeftHand  0.658479 -10.7448 -7.36799
RightShoulder  0 2.42657e-020 1.07489e-018
RightArm  -71.8528 -23.1672 87.6764
RightForeArm  -26.9138 63.6138 20.6992
RightHand  2.15056 12.6185 19.6492
LeftUpLeg  -16.434 13.9705 8.73496
LeftLeg  25.8237 -11.6089 -4.68413
LeftFoot  6.06914 0.074153 -1.38498
LeftToes  -30.0833 2.01279e-006 2.21547e-008
38
root  -64.3731 32.8544 26.1157 1.19666 55.5095 2.00226
RightUpLeg  9.73055 -18.4094 -16.8525
RightLeg  10.8564 4.64453 0.585463
RightFoot  -1.69148 -0.0160725 -0.0298478
RightToes  -42.1452 -0.237902 -0.317537
Spine  4.14757 -2.62106 0.879709
Spine1  7.95904 -5.19303 1.56684
HEad  26.9532 42.2013 -4.57926
LeftShoulder1  0 -2.42657e-020 -4.95415e-022
LeftArm  -46.6279 8.66032 -73.9618
LeftForeArm  62.2097 -13.811 -2.43143
LeftHand  0.683182 -10.9103 -7.51933
RightShoulder  0 2.42657e-020 1.07489e-018
RightArm  -72.1384 -22.9863 87.3578
RightForeArm  -26.7324 63.1197 20.2396
RightHand  2.25131 12.8071 20.2409
LeftUpLeg  -16.4811 14.2287 8.77364
LeftLeg  25.9355 -11.7696 -4.77419
LeftFoot  5.92792 0.0738274 -1.37503
LeftToes  -29.9706 2.01279e-006 2.21547e-008
